<?xml version="1.0" encoding="utf-8"?>
<!-- Generator: Adobe Illustrator 16.0.4, SVG Export Plug-In . SVG Version: 6.00 Build 0)  -->
<!DOCTYPE svg PUBLIC "-//W3C//DTD SVG 1.1//EN" "http://www.w3.org/Graphics/SVG/1.1/DTD/svg11.dtd">
<svg version="1.1" id="Layer_1" xmlns="http://www.w3.org/2000/svg" xmlns:xlink="http://www.w3.org/1999/xlink" x="0px" y="0px"
	 width="2048px" height="2048px" viewBox="0 0 2048 2048" enable-background="new 0 0 2048 2048" xml:space="preserve">
<rect fill="#FFFFFF" fill-opacity="0" width="2048" height="2048"/>
<g>
	<polygon fill="#FFFFFF" points="16,583 16,1717 520,1969 1024,1717 1528,1969 2032,1717 2032,583 1024,79 	"/>
	<g opacity="0.75">
		<polygon fill="#6ED685" points="16,583 1024,79 2032,583 1024,1087 16,583 16,1717 520,1969 1024,1087 2032,583 2032,1717 
			1528,1969 1024,1087 		"/>
	</g>
	<polygon opacity="0.5" fill="#6ED685" enable-background="new    " points="1024,79 16,583 1024,1087 2032,583 	"/>
	<polygon opacity="0.6" fill="#62BD71" enable-background="new    " points="16,583 16,1717 520,1969 1024,1087 	"/>
	<polygon fill="#EA5866" points="1528,1969 1528,835 1024,583 1024,1717 	"/>
	<polygon fill="#F16576" points="520,1969 520,835 1024,583 1024,1717 	"/>
	<g display="none">
		<path display="inline" fill="#414042" d="M818.204,956.263c-3.673-6.275-16.716-5.517-29.224,1.825
			c-12.428,7.18-19.646,18.088-16.058,24.322c3.628,6.275,16.611,5.496,29.14-1.805
			C814.636,973.387,821.793,962.518,818.204,956.263z"/>
		<path display="inline" fill="#414042" d="M692.204,1056.607c-3.673-6.275-16.716-5.496-29.224,1.805
			c-12.428,7.219-19.646,18.088-16.058,24.343c3.628,6.275,16.611,5.517,29.14-1.825
			C688.636,1073.752,695.793,1062.842,692.204,1056.607z"/>
		<path display="inline" fill="#414042" d="M818.204,1091.245c-3.673-6.275-16.716-5.515-29.224,1.825
			c-12.428,7.18-19.646,18.088-16.058,24.322c3.628,6.275,16.611,5.496,29.14-1.805
			C814.636,1108.369,821.793,1097.5,818.204,1091.245z"/>
		<path display="inline" fill="#414042" d="M692.204,1182.607c-3.673-6.275-16.716-5.496-29.224,1.805
			c-12.428,7.219-19.646,18.088-16.058,24.343c3.628,6.275,16.611,5.517,29.14-1.825
			C688.636,1199.752,695.793,1188.842,692.204,1182.607z"/>
		<path display="inline" fill="#414042" d="M818.204,1217.245c-3.673-6.275-16.716-5.515-29.224,1.825
			c-12.428,7.18-19.646,18.088-16.058,24.322c3.628,6.275,16.611,5.496,29.14-1.805
			C814.636,1234.369,821.793,1223.5,818.204,1217.245z"/>
		<path display="inline" fill="#414042" d="M692.204,930.607c-3.673-6.275-16.716-5.496-29.224,1.805
			c-12.428,7.219-19.646,18.088-16.058,24.343c3.628,6.275,16.611,5.515,29.14-1.825
			C688.636,947.752,695.793,936.842,692.204,930.607z"/>
		<path display="inline" fill="#414042" d="M818.204,839.245c-3.673-6.275-16.716-5.515-29.224,1.825
			c-12.428,7.18-19.646,18.088-16.058,24.322c3.628,6.275,16.611,5.496,29.14-1.805C814.636,856.369,821.793,845.5,818.204,839.245z
			"/>
		<path display="inline" fill="#414042" d="M692.204,1308.607c-3.673-6.275-16.716-5.496-29.224,1.805
			c-12.428,7.219-19.646,18.088-16.058,24.343c3.628,6.275,16.611,5.517,29.14-1.825
			C688.636,1325.752,695.793,1314.842,692.204,1308.607z"/>
		<path display="inline" fill="#414042" d="M818.204,1343.245c-3.673-6.275-16.716-5.515-29.224,1.825
			c-12.428,7.18-19.646,18.088-16.058,24.322c3.628,6.275,16.611,5.496,29.14-1.805
			C814.636,1360.369,821.793,1349.5,818.204,1343.245z"/>
		<path display="inline" fill="#414042" d="M692.204,1434.607c-3.673-6.275-16.716-5.496-29.224,1.805
			c-12.428,7.219-19.646,18.088-16.058,24.343c3.628,6.275,16.611,5.517,29.14-1.825
			C688.636,1451.752,695.793,1440.842,692.204,1434.607z"/>
		<path display="inline" fill="#414042" d="M818.204,1469.245c-3.673-6.275-16.716-5.515-29.224,1.825
			c-12.428,7.18-19.646,18.088-16.058,24.322c3.628,6.275,16.611,5.496,29.14-1.805
			C814.636,1486.369,821.793,1475.5,818.204,1469.245z"/>
		<path display="inline" fill="#414042" d="M692.204,1560.607c-3.673-6.275-16.716-5.496-29.224,1.805
			c-12.428,7.219-19.646,18.088-16.058,24.343c3.628,6.275,16.611,5.517,29.14-1.825
			C688.636,1577.752,695.793,1566.842,692.204,1560.607z"/>
		<path display="inline" fill="#414042" d="M818.204,1595.245c-3.673-6.275-16.716-5.515-29.224,1.825
			c-12.428,7.18-19.646,18.088-16.058,24.322c3.628,6.275,16.611,5.496,29.14-1.805
			C814.636,1612.369,821.793,1601.5,818.204,1595.245z"/>
		<path display="inline" fill="#414042" d="M692.204,1686.607c-3.673-6.275-16.716-5.496-29.224,1.805
			c-12.428,7.219-19.646,18.088-16.058,24.343c3.628,6.275,16.611,5.517,29.14-1.825
			C688.636,1703.752,695.793,1692.842,692.204,1686.607z"/>
	</g>
	<g display="none">
		<path display="inline" fill="#414042" d="M1229.796,956.263c3.673-6.275,16.716-5.517,29.224,1.825
			c12.43,7.18,19.648,18.088,16.058,24.322c-3.628,6.275-16.609,5.496-29.14-1.805
			C1233.364,973.387,1226.207,962.518,1229.796,956.263z"/>
		<path display="inline" fill="#414042" d="M1355.796,1056.607c3.673-6.275,16.716-5.496,29.224,1.805
			c12.43,7.219,19.648,18.088,16.058,24.343c-3.628,6.275-16.609,5.517-29.14-1.825
			C1359.364,1073.752,1352.207,1062.842,1355.796,1056.607z"/>
		<path display="inline" fill="#414042" d="M1229.796,1091.245c3.673-6.275,16.716-5.515,29.224,1.825
			c12.43,7.18,19.648,18.088,16.058,24.322c-3.628,6.275-16.609,5.496-29.14-1.805
			C1233.364,1108.369,1226.207,1097.5,1229.796,1091.245z"/>
		<path display="inline" fill="#414042" d="M1355.796,1182.607c3.673-6.275,16.716-5.496,29.224,1.805
			c12.43,7.219,19.648,18.088,16.058,24.343c-3.628,6.275-16.609,5.517-29.14-1.825
			C1359.364,1199.752,1352.207,1188.842,1355.796,1182.607z"/>
		<path display="inline" fill="#414042" d="M1229.796,1217.245c3.673-6.275,16.716-5.515,29.224,1.825
			c12.43,7.18,19.648,18.088,16.058,24.322c-3.628,6.275-16.609,5.496-29.14-1.805
			C1233.364,1234.369,1226.207,1223.5,1229.796,1217.245z"/>
		<path display="inline" fill="#414042" d="M1355.796,930.607c3.673-6.275,16.716-5.496,29.224,1.805
			c12.43,7.219,19.648,18.088,16.058,24.343c-3.628,6.275-16.609,5.515-29.14-1.825
			C1359.364,947.752,1352.207,936.842,1355.796,930.607z"/>
		<path display="inline" fill="#414042" d="M1229.796,839.245c3.673-6.275,16.716-5.515,29.224,1.825
			c12.43,7.18,19.648,18.088,16.058,24.322c-3.628,6.275-16.609,5.496-29.14-1.805
			C1233.364,856.369,1226.207,845.5,1229.796,839.245z"/>
		<path display="inline" fill="#414042" d="M1355.796,1308.607c3.673-6.275,16.716-5.496,29.224,1.805
			c12.43,7.219,19.648,18.088,16.058,24.343c-3.628,6.275-16.609,5.517-29.14-1.825
			C1359.364,1325.752,1352.207,1314.842,1355.796,1308.607z"/>
		<path display="inline" fill="#414042" d="M1229.796,1343.245c3.673-6.275,16.716-5.515,29.224,1.825
			c12.43,7.18,19.648,18.088,16.058,24.322c-3.628,6.275-16.609,5.496-29.14-1.805
			C1233.364,1360.369,1226.207,1349.5,1229.796,1343.245z"/>
		<path display="inline" fill="#414042" d="M1355.796,1434.607c3.673-6.275,16.716-5.496,29.224,1.805
			c12.43,7.219,19.648,18.088,16.058,24.343c-3.628,6.275-16.609,5.517-29.14-1.825
			C1359.364,1451.752,1352.207,1440.842,1355.796,1434.607z"/>
		<path display="inline" fill="#414042" d="M1229.796,1469.245c3.673-6.275,16.716-5.515,29.224,1.825
			c12.43,7.18,19.648,18.088,16.058,24.322c-3.628,6.275-16.609,5.496-29.14-1.805
			C1233.364,1486.369,1226.207,1475.5,1229.796,1469.245z"/>
		<path display="inline" fill="#414042" d="M1355.796,1560.607c3.673-6.275,16.716-5.496,29.224,1.805
			c12.43,7.219,19.648,18.088,16.058,24.343c-3.628,6.275-16.609,5.517-29.14-1.825
			C1359.364,1577.752,1352.207,1566.842,1355.796,1560.607z"/>
		<path display="inline" fill="#414042" d="M1229.796,1595.245c3.673-6.275,16.716-5.515,29.224,1.825
			c12.43,7.18,19.648,18.088,16.058,24.322c-3.628,6.275-16.609,5.496-29.14-1.805
			C1233.364,1612.369,1226.207,1601.5,1229.796,1595.245z"/>
		<path display="inline" fill="#414042" d="M1355.796,1686.607c3.673-6.275,16.716-5.496,29.224,1.805
			c12.43,7.219,19.648,18.088,16.058,24.343c-3.628,6.275-16.609,5.517-29.14-1.825
			C1359.364,1703.752,1352.207,1692.842,1355.796,1686.607z"/>
	</g>
</g>
</svg>
