<?xml version="1.0" encoding="utf-8"?>
<!-- Generator: Adobe Illustrator 16.0.4, SVG Export Plug-In . SVG Version: 6.00 Build 0)  -->
<!DOCTYPE svg PUBLIC "-//W3C//DTD SVG 1.1//EN" "http://www.w3.org/Graphics/SVG/1.1/DTD/svg11.dtd">
<svg version="1.1" id="Layer_1" xmlns="http://www.w3.org/2000/svg" xmlns:xlink="http://www.w3.org/1999/xlink" x="0px" y="0px"
	 width="2048px" height="2048px" viewBox="0 0 2048 2048" enable-background="new 0 0 2048 2048" xml:space="preserve">
<rect fill="#FFFFFF" fill-opacity="0" width="2048" height="2048"/>
<g>
	<polygon fill="#FFFFFF" points="16,583 16,1717 520,1969 1024,1717 1528,1969 2032,1717 2032,583 1024,79 	"/>
	<g opacity="0.75">
		<polygon fill="#6ED685" points="16,583 1024,79 2032,583 1024,1087 16,583 16,1717 520,1969 1024,1087 2032,583 2032,1717
			1528,1969 1024,1087 		"/>
	</g>
	<polygon opacity="0.5" fill="#6ED685" enable-background="new    " points="1024,79 16,583 1024,1087 2032,583 	"/>
	<polygon opacity="0.6" fill="#62BD71" enable-background="new    " points="16,583 16,1717 520,1969 1024,1087 	"/>
	<polygon fill="#EA5866" points="1528,1969 1528,835 1024,583 1024,1717 	"/>
	<polygon fill="#F16576" points="520,1969 520,835 1024,583 1024,1717 	"/>
</g>
</svg>
